<svg width="317" height="101" viewBox="0 0 317 101" fill="none" xmlns="http://www.w3.org/2000/svg">
<rect y="11" width="80" height="79.4702" rx="20" fill="#0B0E14"/>
<path d="M34.2064 41.56C33.1504 41.432 31.2944 41.256 28.6384 41.032C27.1664 40.968 25.9824 40.936 25.0864 40.936C23.9344 40.936 22.8464 40.968 21.8224 41.032V33.592H23.0224C25.6464 33.592 28.3664 33.768 31.1824 34.12C32.0784 34.248 33.0864 34.424 34.2064 34.648V41.56ZM26.2864 57.256C26.2864 56.584 26.2384 56.104 26.1424 55.816C26.0464 55.496 25.8864 55.288 25.6624 55.192C25.4384 55.064 25.0544 54.968 24.5104 54.904L18.6064 54.184C15.1184 53.8 12.7664 52.664 11.5504 50.776C11.0064 49.976 10.6384 49 10.4464 47.848C10.2544 46.696 10.1584 45.288 10.1584 43.624C10.1584 40.072 11.0704 37.512 12.8944 35.944C14.3664 34.664 16.6704 33.912 19.8064 33.688V43.336C19.8064 43.752 19.8224 44.104 19.8544 44.392C19.8864 44.68 19.9504 44.904 20.0464 45.064C20.1424 45.256 20.3024 45.4 20.5264 45.496C20.7504 45.56 21.0864 45.608 21.5344 45.64L28.1584 46.456C29.5344 46.648 30.6544 46.888 31.5184 47.176C32.3824 47.464 33.1184 47.912 33.7264 48.52C35.1664 50.024 35.8864 52.696 35.8864 56.536C35.8864 60.6 34.9904 63.448 33.1984 65.08C32.3984 65.816 31.4224 66.36 30.2704 66.712C29.1504 67.032 27.8224 67.24 26.2864 67.336V57.256ZM23.7424 67.384C20.5424 67.384 17.5664 67.24 14.8144 66.952C13.1824 66.792 11.9504 66.632 11.1184 66.472V59.464C13.0064 59.624 15.1664 59.784 17.5984 59.944C19.1344 60.008 20.2224 60.04 20.8624 60.04C22.5904 60.04 23.7264 59.992 24.2704 59.896V67.384H23.7424ZM54.285 67.384C50.925 67.384 48.333 67.112 46.509 66.568C44.685 66.024 43.341 65.144 42.477 63.928C41.677 62.808 41.181 61.384 40.989 59.656C40.797 57.928 40.701 55.352 40.701 51.928V33.976H50.301V53.848C50.301 55.032 50.333 56.168 50.397 57.256C50.461 58.12 50.605 58.744 50.829 59.128C51.053 59.512 51.437 59.752 51.981 59.848C52.461 59.976 53.229 60.04 54.285 60.04H55.389C55.645 60.04 55.933 60.008 56.253 59.944V67.336C56.029 67.368 55.709 67.384 55.293 67.384H54.285ZM58.269 33.976H67.869V51.928C67.869 55.064 67.805 57.432 67.677 59.032C67.549 60.632 67.197 61.976 66.621 63.064C65.981 64.312 65.005 65.272 63.693 65.944C62.381 66.616 60.573 67.048 58.269 67.24V33.976Z" fill="#ED500A"/>
<path d="M122.621 39.08C121.213 38.9093 118.738 38.6747 115.197 38.376C113.234 38.2907 111.656 38.248 110.461 38.248C108.925 38.248 107.474 38.2907 106.109 38.376V28.456H107.709C111.208 28.456 114.834 28.6907 118.589 29.16C119.784 29.3307 121.128 29.5653 122.621 29.864V39.08ZM112.061 60.008C112.061 59.112 111.997 58.472 111.869 58.088C111.741 57.6613 111.528 57.384 111.229 57.256C110.93 57.0853 110.418 56.9573 109.693 56.872L101.821 55.912C97.1703 55.4 94.0343 53.8853 92.413 51.368C91.6877 50.3013 91.197 49 90.941 47.464C90.685 45.928 90.557 44.0507 90.557 41.832C90.557 37.096 91.773 33.6827 94.205 31.592C96.1677 29.8853 99.2397 28.8827 103.421 28.584V41.448C103.421 42.0027 103.442 42.472 103.485 42.856C103.528 43.24 103.613 43.5387 103.741 43.752C103.869 44.008 104.082 44.2 104.381 44.328C104.68 44.4133 105.128 44.4773 105.725 44.52L114.557 45.608C116.392 45.864 117.885 46.184 119.037 46.568C120.189 46.952 121.17 47.5493 121.981 48.36C123.901 50.3653 124.861 53.928 124.861 59.048C124.861 64.4667 123.666 68.264 121.277 70.44C120.21 71.4213 118.909 72.1467 117.373 72.616C115.88 73.0427 114.109 73.32 112.061 73.448V60.008ZM108.669 73.512C104.402 73.512 100.434 73.32 96.765 72.936C94.589 72.7227 92.9463 72.5093 91.837 72.296V62.952C94.3543 63.1653 97.2343 63.3787 100.477 63.592C102.525 63.6773 103.976 63.72 104.829 63.72C107.133 63.72 108.648 63.656 109.373 63.528V73.512H108.669ZM131.473 28.968H144.273V73H131.473V28.968ZM149.014 28.968H185.046V39.208H149.014V28.968ZM160.598 41.768H173.398V73H160.598V41.768ZM189.785 28.968H202.585V73H189.785V28.968ZM207.833 58.024H205.273V48.232H207.449C208.772 48.232 209.774 48.1893 210.457 48.104C211.14 47.976 211.673 47.7627 212.057 47.464C212.398 47.1653 212.633 46.7173 212.761 46.12C212.889 45.5227 212.953 44.648 212.953 43.496C212.953 42.344 212.889 41.4693 212.761 40.872C212.633 40.232 212.398 39.7627 212.057 39.464C211.716 39.1653 211.204 38.9733 210.521 38.888C209.881 38.8027 208.857 38.76 207.449 38.76H205.273V28.968H211.865C214.894 28.968 217.348 29.2667 219.225 29.864C221.102 30.4613 222.553 31.3787 223.577 32.616C224.516 33.768 225.134 35.1973 225.433 36.904C225.774 38.6107 225.945 40.808 225.945 43.496C225.945 46.952 225.625 49.6187 224.985 51.496C224.089 53.8853 222.51 55.5707 220.249 56.552L226.905 73H213.465L207.833 58.024ZM242.894 28.968H243.982L249.038 46.504L241.678 73H228.878L242.894 28.968ZM257.294 65.192H246.606L249.294 55.336H254.414L246.862 28.968H258.574L272.59 73H259.534L257.294 65.192ZM294.768 73.512C290.288 73.512 286.832 73.1493 284.4 72.424C281.968 71.6987 280.176 70.5253 279.024 68.904C277.957 67.4107 277.296 65.512 277.04 63.208C276.784 60.904 276.656 57.4693 276.656 52.904V28.968H289.456V55.464C289.456 57.0427 289.498 58.5573 289.583 60.008C289.669 61.16 289.861 61.992 290.16 62.504C290.458 63.016 290.97 63.336 291.696 63.464C292.336 63.6347 293.36 63.72 294.768 63.72H296.24C296.581 63.72 296.965 63.6773 297.392 63.592V73.448C297.093 73.4907 296.666 73.512 296.112 73.512H294.768ZM300.08 28.968H312.88V52.904C312.88 57.0853 312.794 60.2427 312.624 62.376C312.453 64.5093 311.984 66.3013 311.216 67.752C310.362 69.416 309.061 70.696 307.312 71.592C305.562 72.488 303.152 73.064 300.08 73.32V28.968Z" fill="#0B0E14"/>
</svg>
